<?xml version="1.0" encoding="UTF-8" standalone="no"?>
<!-- Created with Inkscape (http://www.inkscape.org/) -->
<svg xmlns:inkscape="http://www.inkscape.org/namespaces/inkscape" xmlns:rdf="http://www.w3.org/1999/02/22-rdf-syntax-ns#" xmlns="http://www.w3.org/2000/svg" xmlns:xlink="http://www.w3.org/1999/xlink" xmlns:ns1="http://sozi.baierouge.fr" xmlns:cc="http://creativecommons.org/ns#" xmlns:sodipodi="http://sodipodi.sourceforge.net/DTD/sodipodi-0.dtd" xmlns:dc="http://purl.org/dc/elements/1.1/" id="svg2" xml:space="preserve" viewBox="0 0 32.84 13.501" version="1.1" inkscape:version="0.91 r13725">
  <g id="g10" transform="matrix(1.25 0 0 -1.25 0 13.501)">
    <g id="g12">
      <path id="path14" style="fill-rule:evenodd;fill:#ccb664" d="m22.043 3.406c0.32-0.535 0.098-0.844-0.672-0.93-0.789-0.086-1.738 0.043-2.848 0.383l-1.437 0.516c0.019-0.067-0.055-0.141-0.227-0.227-0.339-0.148-0.949-0.234-1.824-0.254-0.875-0.043-1.695-0.023-2.465 0.063l-0.894 0.16c-0.77-0.383-1.793-0.512-3.071-0.383-0.984 0.106-1.933 0.285-2.847 0.543-0.942 0.301-1.43 0.555-1.473 0.77-0.043 0.191-0.012 0.351 0.094 0.48l0.191 0.125c0.043 0.363 0.235 0.758 0.578 1.184 0.297 0.387 0.567 0.621 0.801 0.707l0.414 0.16c0.106 0.211 0.227 0.437 0.352 0.672 0.277 0.488 0.535 0.808 0.769 0.957 0.34 0.258 0.918 0.437 1.727 0.547l0.547 0.605c0.445 0.426 0.937 0.703 1.469 0.832 0.554 0.129 1.078 0.067 1.57-0.191 0.254-0.129 0.457-0.266 0.605-0.418l0.481 0.16c0.406 0.066 0.82 0.055 1.25-0.031 0.66-0.129 1.172-0.426 1.535-0.895l0.703-0.16c0.535-0.129 0.918-0.289 1.152-0.48 0.383-0.321 0.524-0.727 0.418-1.215l0.641-0.098c0.469-0.129 0.789-0.289 0.957-0.48 0.277-0.321 0.43-0.555 0.449-0.703l0.77-0.192c0.531-0.172 0.808-0.418 0.832-0.738 0.062-0.531-0.352-0.777-1.25-0.735l0.703-0.734z" inkscape:connector-curvature="0"/>
      <path id="path16" style="fill-rule:evenodd;fill:#b09a4a" d="m10.238 10.539c0.637 0.234 1.184 0.301 1.629 0.191 0.43-0.082 0.59-0.265 0.481-0.543-0.106-0.254-0.383-0.488-0.832-0.703-0.489-0.254-1.055-0.394-1.696-0.414-0.66-0.023-0.894 0.168-0.703 0.574 0.172 0.407 0.543 0.704 1.121 0.895z" inkscape:connector-curvature="0"/>
      <path id="path18" style="fill-rule:evenodd;fill:#e3ce7f" d="m9.66 10.285c0.578 0.297 1.11 0.469 1.602 0.512 0.426 0.019 0.691-0.032 0.8-0.16 0.083-0.129 0.051-0.289-0.097-0.481-0.149-0.215-0.363-0.375-0.641-0.48-0.789-0.321-1.429-0.438-1.918-0.352-0.301 0.043-0.386 0.191-0.258 0.449 0.106 0.211 0.278 0.383 0.512 0.512z" inkscape:connector-curvature="0"/>
      <path id="path20" style="fill-rule:evenodd;fill:#b09a4a" d="m9.5 9.164c-0.254 0.023-0.395 0.105-0.414 0.258 0 0.082 0.211 0.242 0.641 0.476 0.402 0.239 1.011 0.492 1.82 0.77l-1.598-0.863c-0.406-0.215-0.609-0.375-0.609-0.481 0-0.043 0.055-0.098 0.16-0.16z" inkscape:connector-curvature="0"/>
      <path id="path22" style="fill-rule:evenodd;fill:#fff0b8" d="m11.773 10.539-0.097 0.191c-0.043 0.067 0.086 0.047 0.383-0.062 0.086-0.043 0.097-0.172 0.035-0.383-0.086-0.258-0.406-0.492-0.961-0.703-0.258-0.106-0.5-0.184-0.735-0.227l-0.289-0.031 0.61 0.191c0.211 0.067 0.476 0.247 0.797 0.547 0.214 0.125 0.3 0.286 0.257 0.477z" inkscape:connector-curvature="0"/>
      <path id="path24" style="fill-rule:evenodd;fill:#b09a4a" d="m1.566 6.058c0.723 0.086 1.289 0.036 1.696-0.16 0.406-0.168 0.511-0.371 0.32-0.605-0.191-0.258-0.547-0.449-1.059-0.578-0.554-0.125-1.171-0.149-1.855-0.063-0.66 0.086-0.832 0.321-0.512 0.703 0.301 0.383 0.77 0.621 1.41 0.703z" inkscape:connector-curvature="0"/>
      <path id="path26" style="fill-rule:evenodd;fill:#e3ce7f" d="m0.895 5.898c0.679 0.196 1.277 0.258 1.789 0.196 0.429-0.043 0.671-0.153 0.738-0.321 0.043-0.152-0.043-0.3-0.258-0.449-0.211-0.172-0.469-0.289-0.766-0.351-0.898-0.172-1.578-0.161-2.05 0.031-0.278 0.109-0.321 0.269-0.125 0.48 0.168 0.192 0.39 0.332 0.672 0.414z" inkscape:connector-curvature="0"/>
      <path id="path28" style="fill-rule:evenodd;fill:#b09a4a" d="m0.414 4.812c-0.258 0.086-0.375 0.203-0.352 0.352 0.02 0.086 0.286 0.203 0.797 0.351 0.469 0.149 1.153 0.278 2.051 0.383l-1.855-0.511c-0.473-0.129-0.727-0.247-0.77-0.352-0.019-0.062 0.02-0.137 0.129-0.223z" inkscape:connector-curvature="0"/>
      <path id="path30" style="fill-rule:evenodd;fill:#fff0b8" d="m3.102 5.738-0.032 0.227c-0.023 0.082 0.094 0.031 0.352-0.16 0.082-0.043 0.062-0.161-0.067-0.352-0.167-0.258-0.562-0.438-1.183-0.547-0.469-0.082-0.844-0.105-1.117-0.062 0.211 0.062 0.433 0.097 0.672 0.097 0.234 0 0.562 0.125 0.992 0.383 0.254 0.086 0.383 0.223 0.383 0.414z" inkscape:connector-curvature="0"/>
      <path id="path32" style="fill-rule:evenodd;fill:#b09a4a" d="m23.773 5.515c0.809 0.106 1.473 0.075 1.985-0.093 0.469-0.172 0.617-0.387 0.445-0.641-0.191-0.258-0.574-0.449-1.152-0.578-0.617-0.172-1.321-0.215-2.11-0.125-0.769 0.082-1.003 0.316-0.707 0.703 0.301 0.383 0.813 0.629 1.539 0.734z" inkscape:connector-curvature="0"/>
      <path id="path34" style="fill-rule:evenodd;fill:#e3ce7f" d="m23.004 5.355c0.769 0.192 1.441 0.266 2.016 0.227 0.511-0.043 0.812-0.152 0.898-0.32 0.082-0.129 0.02-0.278-0.191-0.45-0.215-0.172-0.493-0.289-0.832-0.351-0.985-0.192-1.786-0.203-2.403-0.031-0.32 0.105-0.383 0.265-0.191 0.48 0.168 0.191 0.406 0.34 0.703 0.445z" inkscape:connector-curvature="0"/>
      <path id="path36" style="fill-rule:evenodd;fill:#b09a4a" d="m22.59 4.269c-0.301 0.063-0.438 0.172-0.418 0.321 0.043 0.082 0.332 0.211 0.863 0.383 0.535 0.148 1.301 0.285 2.305 0.414l-2.078-0.575c-0.535-0.129-0.813-0.246-0.832-0.351 0-0.043 0.05-0.11 0.16-0.192z" inkscape:connector-curvature="0"/>
      <path id="path38" style="fill-rule:evenodd;fill:#fff0b8" d="m25.566 5.226-0.066 0.227c0 0.02 0.152-0.023 0.449-0.129 0.086-0.043 0.074-0.172-0.031-0.383-0.172-0.258-0.598-0.437-1.281-0.547-0.34-0.062-0.649-0.093-0.93-0.093h-0.352l0.77 0.093c0.254 0.024 0.609 0.161 1.055 0.418 0.215 0.067 0.343 0.129 0.382 0.192 0.004 0.023 0.004 0.097 0.004 0.222z" inkscape:connector-curvature="0"/>
      <path id="path40" style="fill-rule:evenodd;fill:#b09a4a" d="m18.91 4.715c0.594-0.168 0.981-0.555 1.149-1.153 0.195-0.617-0.039-0.968-0.704-1.054-0.66-0.082-1.238 0-1.726 0.257-0.449 0.254-0.738 0.575-0.863 0.958-0.11 0.386 0.05 0.695 0.48 0.929 0.445 0.235 1 0.254 1.664 0.063z" inkscape:connector-curvature="0"/>
      <path id="path42" style="fill-rule:evenodd;fill:#e3ce7f" d="m19.516 4.461c0.234-0.129 0.418-0.363 0.546-0.703 0.106-0.364 0.02-0.61-0.257-0.739-0.532-0.254-1.196-0.211-1.985 0.129-0.277 0.106-0.488 0.297-0.64 0.575-0.149 0.257-0.18 0.503-0.094 0.738 0.086 0.234 0.352 0.371 0.801 0.418 0.488 0.039 1.031-0.098 1.629-0.418z" inkscape:connector-curvature="0"/>
      <path id="path44" style="fill-rule:evenodd;fill:#b09a4a" d="m19.676 2.765c0.129 0.125 0.191 0.235 0.191 0.321 0 0.148-0.211 0.34-0.64 0.574l-1.629 0.961 0.703-0.258c0.511-0.191 0.894-0.359 1.152-0.512 0.426-0.253 0.641-0.457 0.641-0.605 0-0.238-0.141-0.398-0.418-0.481z" inkscape:connector-curvature="0"/>
      <path id="path46" style="fill-rule:evenodd;fill:#fff0b8" d="m17.371 4.363c-0.019-0.168-0.031-0.277-0.031-0.316 0.023-0.129 0.117-0.246 0.289-0.356 0.062-0.043 0.203-0.179 0.414-0.414 0.152-0.129 0.289-0.203 0.418-0.222 0.215-0.024 0.418-0.098 0.609-0.227-0.277-0.02-0.629 0.043-1.058 0.191-0.551 0.215-0.875 0.524-0.957 0.93-0.067 0.32-0.055 0.512 0.031 0.574 0.062 0.024 0.16 0.086 0.289 0.196 0.082 0.062 0.117 0.05 0.094-0.036l-0.098-0.32z" inkscape:connector-curvature="0"/>
      <path id="path48" style="fill-rule:evenodd;fill:#b09a4a" d="m9.148 3.723c0.895 0.152 1.633 0.109 2.207-0.125 0.536-0.235 0.704-0.536 0.512-0.899-0.211-0.359-0.629-0.641-1.246-0.832-0.703-0.234-1.492-0.297-2.367-0.191-0.856 0.129-1.121 0.468-0.801 1.023 0.34 0.535 0.906 0.875 1.695 1.024z" inkscape:connector-curvature="0"/>
      <path id="path50" style="fill-rule:evenodd;fill:#e3ce7f" d="m8.316 3.5c0.832 0.277 1.579 0.383 2.243 0.32 0.574-0.062 0.906-0.215 0.988-0.449 0.086-0.191 0.012-0.414-0.223-0.672-0.234-0.254-0.543-0.426-0.926-0.512-1.152-0.254-2.027-0.254-2.625 0-0.363 0.129-0.437 0.364-0.226 0.703 0.172 0.282 0.43 0.485 0.769 0.61z" inkscape:connector-curvature="0"/>
      <path id="path52" style="fill-rule:evenodd;fill:#b09a4a" d="m7.867 1.933c-0.34 0.082-0.5 0.235-0.476 0.446 0.019 0.086 0.062 0.16 0.125 0.226 0.129 0.063 0.406 0.172 0.832 0.321 0.578 0.234 1.418 0.449 2.527 0.636l-2.27-0.828c-0.578-0.215-0.886-0.386-0.929-0.515 0-0.063 0.066-0.161 0.191-0.286z" inkscape:connector-curvature="0"/>
      <path id="path54" style="fill-rule:evenodd;fill:#fff0b8" d="m11.164 3.308-0.094 0.321c-0.023 0.086 0.137 0.019 0.477-0.192 0.109-0.066 0.152-0.129 0.129-0.191-0.02-0.066-0.063-0.172-0.129-0.32-0.149-0.364-0.629-0.629-1.438-0.801-0.363-0.086-0.703-0.141-1.023-0.16h-0.387l0.832 0.191c0.172 0 0.364 0.063 0.578 0.192 0.278 0.191 0.489 0.308 0.641 0.351 0.211 0.109 0.352 0.215 0.414 0.32v0.289z" inkscape:connector-curvature="0"/>
      <path id="path56" style="fill-rule:evenodd;fill:#b09a4a" d="m3.934 4.875c0.894 0.109 1.621 0.023 2.175-0.254 0.532-0.277 0.692-0.586 0.481-0.93-0.235-0.34-0.66-0.597-1.281-0.765-0.727-0.192-1.516-0.215-2.368-0.067-0.851 0.172-1.097 0.524-0.738 1.059 0.344 0.531 0.918 0.851 1.731 0.957z" inkscape:connector-curvature="0"/>
      <path id="path58" style="fill-rule:evenodd;fill:#e3ce7f" d="m3.102 4.683c0.851 0.235 1.597 0.301 2.238 0.192 0.578-0.086 0.898-0.246 0.961-0.481 0.086-0.211 0-0.437-0.258-0.671-0.234-0.211-0.543-0.364-0.926-0.446-1.152-0.215-2.039-0.183-2.656 0.094-0.34 0.148-0.406 0.394-0.191 0.734 0.21 0.282 0.488 0.473 0.832 0.578z" inkscape:connector-curvature="0"/>
      <path id="path60" style="fill-rule:evenodd;fill:#b09a4a" d="m2.559 3.148c-0.321 0.106-0.473 0.266-0.45 0.481 0.02 0.129 0.352 0.289 0.993 0.48 0.574 0.192 1.429 0.364 2.558 0.512l-2.336-0.703c-0.597-0.172-0.906-0.332-0.926-0.481-0.023-0.062 0.032-0.16 0.161-0.289z" inkscape:connector-curvature="0"/>
      <path id="path62" style="fill-rule:evenodd;fill:#fff0b8" d="m4.797 3.211c-0.598-0.106-1.067-0.125-1.406-0.063l0.863 0.129c0.168-0.023 0.359 0.031 0.574 0.16 0.277 0.168 0.492 0.278 0.641 0.317 0.215 0.086 0.351 0.183 0.418 0.289 0.019 0.062 0.031 0.172 0.031 0.32l-0.066 0.289c-0.02 0.082 0.14 0.02 0.48-0.195 0.086-0.063 0.117-0.137 0.098-0.223-0.024-0.043-0.075-0.148-0.16-0.32-0.149-0.316-0.641-0.551-1.473-0.703z" inkscape:connector-curvature="0"/>
      <path id="path64" style="fill-rule:evenodd;fill:#b09a4a" d="m7.355 8.75c0.704 0.383 1.344 0.562 1.922 0.543 0.512-0.043 0.735-0.235 0.672-0.578-0.062-0.364-0.344-0.711-0.832-1.055-0.535-0.406-1.195-0.695-1.984-0.863-0.77-0.172-1.09 0.019-0.961 0.574s0.523 1.016 1.183 1.379z" inkscape:connector-curvature="0"/>
      <path id="path66" style="fill-rule:evenodd;fill:#e3ce7f" d="m6.684 8.301c0.64 0.488 1.257 0.8 1.855 0.925 0.492 0.129 0.813 0.11 0.961-0.062 0.129-0.129 0.129-0.332 0-0.609-0.148-0.278-0.371-0.5-0.672-0.672-0.832-0.555-1.578-0.832-2.238-0.832-0.344 0.023-0.469 0.195-0.387 0.511 0.067 0.301 0.227 0.547 0.481 0.739z" inkscape:connector-curvature="0"/>
      <path id="path68" style="fill-rule:evenodd;fill:#b09a4a" d="m6.75 6.89c-0.32-0.019-0.504 0.055-0.547 0.227-0.019 0.086 0 0.16 0.067 0.223 0.062 0.062 0.265 0.234 0.605 0.511 0.43 0.34 1.102 0.77 2.02 1.282l-1.762-1.344c-0.449-0.363-0.66-0.598-0.641-0.703 0-0.067 0.086-0.129 0.258-0.196z" inkscape:connector-curvature="0"/>
      <path id="path70" style="fill-rule:evenodd;fill:#fff0b8" d="m9.18 9.004-0.16 0.222c-0.043 0.067 0 0.086 0.128 0.067 0.063 0 0.184-0.024 0.352-0.067 0.105-0.019 0.152-0.168 0.129-0.445-0.043-0.34-0.383-0.695-1.024-1.058-0.3-0.192-0.578-0.34-0.832-0.446l-0.32-0.097 0.672 0.382c0.254 0.11 0.543 0.383 0.863 0.832 0.172 0.129 0.258 0.246 0.258 0.352 0 0.043-0.023 0.129-0.066 0.258z" inkscape:connector-curvature="0"/>
      <path id="path72" style="fill-rule:evenodd;fill:#b09a4a" d="m7.484 5.738c0.641 0.473 1.25 0.672 1.825 0.61 0.535-0.063 0.8-0.321 0.8-0.766 0.02-0.473-0.171-0.93-0.578-1.379-0.445-0.488-1.043-0.82-1.789-0.992-0.746-0.192-1.121 0.086-1.121 0.832 0 0.707 0.289 1.269 0.863 1.695z" inkscape:connector-curvature="0"/>
      <path id="path74" style="fill-rule:evenodd;fill:#e3ce7f" d="m6.941 5.195c0.532 0.578 1.079 0.949 1.633 1.121 0.469 0.129 0.797 0.086 0.992-0.129 0.168-0.191 0.211-0.457 0.125-0.8-0.062-0.36-0.234-0.649-0.511-0.864-0.426-0.383-0.789-0.648-1.086-0.8-0.301-0.149-0.629-0.2-0.992-0.161-0.344 0.024-0.512 0.246-0.512 0.676 0.019 0.383 0.137 0.703 0.351 0.957z" inkscape:connector-curvature="0"/>
      <path id="path76" style="fill-rule:evenodd;fill:#b09a4a" d="m7.293 3.34c-0.301-0.02-0.492 0.086-0.574 0.32-0.043 0.105-0.043 0.191 0 0.254 0.039 0.129 0.199 0.351 0.476 0.672 0.364 0.449 0.942 0.972 1.731 1.57l-1.41-1.695c-0.383-0.43-0.555-0.715-0.512-0.867 0.023-0.082 0.117-0.168 0.289-0.254z" inkscape:connector-curvature="0"/>
      <path id="path78" style="fill-rule:evenodd;fill:#fff0b8" d="m9.277 5.996-0.222 0.289c-0.067 0.086 0.093 0.074 0.476-0.031 0.11-0.024 0.172-0.086 0.196-0.196l0.031-0.382c0.082-0.407-0.16-0.864-0.738-1.375-0.426-0.344-0.79-0.555-1.086-0.641l0.16 0.191c0.148 0.129 0.297 0.223 0.445 0.289 0.234 0.125 0.461 0.469 0.672 1.024 0.152 0.168 0.215 0.328 0.195 0.48 0 0.043-0.043 0.161-0.129 0.352z" inkscape:connector-curvature="0"/>
      <path id="path80" style="fill-rule:evenodd;fill:#b09a4a" d="m12.668 9.933c0.789 0.125 1.441 0.082 1.953-0.128 0.469-0.192 0.609-0.438 0.418-0.735-0.172-0.32-0.535-0.566-1.09-0.738-0.617-0.192-1.312-0.246-2.078-0.16-0.769 0.105-1.004 0.394-0.707 0.863 0.301 0.473 0.801 0.77 1.504 0.898z" inkscape:connector-curvature="0"/>
      <path id="path82" style="fill-rule:evenodd;fill:#e3ce7f" d="m11.934 9.742c0.746 0.234 1.398 0.328 1.953 0.285 0.511-0.043 0.808-0.168 0.894-0.383 0.063-0.171-0.011-0.363-0.222-0.574-0.196-0.215-0.461-0.363-0.801-0.449-0.961-0.234-1.738-0.246-2.336-0.035-0.301 0.129-0.363 0.332-0.192 0.609 0.168 0.278 0.403 0.461 0.704 0.547z" inkscape:connector-curvature="0"/>
      <path id="path84" style="fill-rule:evenodd;fill:#b09a4a" d="m11.516 8.394c-0.297 0.067-0.438 0.196-0.414 0.387 0.019 0.086 0.062 0.149 0.128 0.192 0.082 0.062 0.317 0.16 0.704 0.289 0.531 0.191 1.289 0.371 2.269 0.543l-2.015-0.704c-0.532-0.191-0.809-0.343-0.833-0.449 0-0.086 0.055-0.172 0.161-0.258z" inkscape:connector-curvature="0"/>
      <path id="path86" style="fill-rule:evenodd;fill:#fff0b8" d="m14.43 9.582-0.067 0.254c-0.039 0.105 0.098 0.062 0.418-0.129 0.086-0.063 0.117-0.125 0.098-0.192 0-0.019-0.043-0.117-0.129-0.289-0.109-0.296-0.523-0.519-1.25-0.671-0.32-0.082-0.617-0.125-0.895-0.125h-0.351l0.734 0.125c0.278 0.023 0.629 0.195 1.055 0.515 0.215 0.082 0.344 0.168 0.387 0.254v0.258z" inkscape:connector-curvature="0"/>
      <path id="path88" style="fill-rule:evenodd;fill:#b09a4a" d="m17.691 8.973c0.727-0.215 1.219-0.555 1.473-1.024 0.258-0.449 0.227-0.801-0.094-1.055-0.343-0.277-0.8-0.386-1.379-0.32-0.617 0.063-1.203 0.32-1.757 0.766-0.555 0.472-0.567 0.91-0.032 1.312 0.532 0.406 1.129 0.512 1.789 0.321z" inkscape:connector-curvature="0"/>
      <path id="path90" style="fill-rule:evenodd;fill:#e3ce7f" d="m16.957 9.07c0.77-0.066 1.367-0.269 1.793-0.609 0.359-0.278 0.512-0.543 0.445-0.801-0.039-0.234-0.211-0.414-0.511-0.543-0.297-0.152-0.606-0.191-0.926-0.129-0.535 0.106-0.938 0.235-1.219 0.383-0.277 0.148-0.512 0.363-0.703 0.641-0.172 0.277-0.098 0.535 0.223 0.769 0.3 0.211 0.601 0.309 0.898 0.289z" inkscape:connector-curvature="0"/>
      <path id="path92" style="fill-rule:evenodd;fill:#b09a4a" d="m15.773 7.758c-0.043 0.043-0.085 0.105-0.128 0.191-0.043 0.149-0.02 0.285 0.062 0.414 0.066 0.086 0.129 0.141 0.191 0.16 0.11 0.024 0.364 0.024 0.77 0 0.535-0.019 1.258-0.16 2.176-0.414-0.555 0.02-1.246 0.063-2.078 0.125-0.536 0.043-0.856 0-0.961-0.125 0-0.172-0.012-0.289-0.032-0.351z" inkscape:connector-curvature="0"/>
      <path id="path94" style="fill-rule:evenodd;fill:#fff0b8" d="m17.469 7.019c-0.301 0.067-0.567 0.153-0.801 0.258l-0.254 0.16 0.672-0.16c0.211-0.109 0.605-0.086 1.184 0.063 0.21 0 0.359 0.043 0.449 0.129l0.191 0.285 0.094 0.32c0.023 0.086 0.062 0.074 0.129-0.031 0.019-0.063 0.062-0.172 0.129-0.32 0.019-0.106 0.008-0.192-0.035-0.254-0.02-0.024-0.118-0.11-0.286-0.258-0.3-0.274-0.789-0.34-1.472-0.192z" inkscape:connector-curvature="0"/>
      <path id="path96" style="fill-rule:evenodd;fill:#b09a4a" d="m20.637 6.219c0.875-0.125 1.523-0.403 1.953-0.832 0.426-0.383 0.488-0.704 0.187-0.957-0.297-0.258-0.765-0.383-1.406-0.383-0.726 0-1.461 0.191-2.207 0.574s-0.887 0.777-0.418 1.184c0.473 0.406 1.102 0.543 1.891 0.414z" inkscape:connector-curvature="0"/>
      <path id="path98" style="fill-rule:evenodd;fill:#e3ce7f" d="m19.805 6.285c0.851-0.023 1.566-0.16 2.144-0.418 0.489-0.234 0.746-0.48 0.77-0.734 0.019-0.215-0.121-0.395-0.418-0.547-0.301-0.149-0.641-0.199-1.024-0.16-1.089 0.109-1.886 0.375-2.402 0.8-0.277 0.258-0.266 0.504 0.035 0.739 0.254 0.211 0.555 0.32 0.895 0.32z" inkscape:connector-curvature="0"/>
      <path id="path100" style="fill-rule:evenodd;fill:#b09a4a" d="m18.91 4.973c-0.066 0.042-0.129 0.105-0.191 0.191-0.11 0.129-0.141 0.258-0.098 0.383 0.043 0.086 0.106 0.14 0.191 0.16 0.106 0.023 0.383 0.043 0.833 0.066 0.597 0 1.441-0.086 2.527-0.258l-2.336-0.031c-0.617 0-0.961-0.054-1.024-0.16-0.019-0.086 0.012-0.203 0.098-0.351z" inkscape:connector-curvature="0"/>
      <path id="path102" style="fill-rule:evenodd;fill:#fff0b8" d="m22.234 4.941 0.098 0.254 0.031 0.32c0 0.086 0.129-0.019 0.383-0.32 0.066-0.062 0.078-0.137 0.031-0.222-0.019-0.024-0.093-0.11-0.222-0.258-0.278-0.278-0.797-0.371-1.567-0.285-0.363 0.043-0.691 0.105-0.992 0.191l-0.32 0.129h0.258c0.191-0.024 0.371-0.055 0.543-0.098 0.277-0.086 0.703-0.043 1.281 0.129 0.234 0.02 0.394 0.074 0.476 0.16z" inkscape:connector-curvature="0"/>
      <path id="path104" style="fill-rule:evenodd;fill:#b09a4a" d="m14.398 6.73c0.875-0.211 1.504-0.562 1.887-1.054 0.363-0.469 0.375-0.852 0.031-1.153-0.363-0.297-0.875-0.425-1.535-0.383-0.746 0.067-1.492 0.344-2.242 0.833-0.723 0.492-0.785 0.96-0.191 1.41 0.578 0.445 1.257 0.562 2.05 0.347z" inkscape:connector-curvature="0"/>
      <path id="path106" style="fill-rule:evenodd;fill:#e3ce7f" d="m13.531 6.859c0.899-0.062 1.621-0.265 2.176-0.605 0.469-0.301 0.695-0.598 0.672-0.899-0.02-0.234-0.203-0.437-0.543-0.605-0.34-0.152-0.703-0.195-1.086-0.129-0.641 0.105-1.133 0.234-1.473 0.383-0.363 0.148-0.672 0.383-0.929 0.703-0.254 0.301-0.203 0.578 0.16 0.832 0.32 0.234 0.66 0.344 1.023 0.32z" inkscape:connector-curvature="0"/>
      <path id="path108" style="fill-rule:evenodd;fill:#b09a4a" d="m12.316 5.387c-0.062 0.066-0.117 0.14-0.16 0.226-0.105 0.168-0.117 0.328-0.031 0.481 0.043 0.082 0.117 0.136 0.223 0.16 0.105 0.019 0.406 0.019 0.894 0 0.641-0.024 1.516-0.16 2.625-0.418l-2.465 0.094c-0.636 0.023-1-0.032-1.086-0.157-0.062-0.066-0.062-0.191 0-0.386z" inkscape:connector-curvature="0"/>
      <path id="path110" style="fill-rule:evenodd;fill:#fff0b8" d="m15.996 5.453 0.066 0.383c0.02 0.086 0.075 0.074 0.161-0.031 0.043-0.086 0.105-0.215 0.191-0.383 0.063-0.086 0.063-0.172 0-0.258-0.023-0.02-0.117-0.117-0.289-0.285-0.32-0.321-0.887-0.406-1.695-0.258-0.364 0.086-0.696 0.191-0.992 0.32l-0.352 0.16 0.863-0.191c0.149-0.066 0.352-0.066 0.61 0 0.339 0.063 0.586 0.094 0.734 0.094 0.258 0 0.437 0.054 0.547 0.16 0.019 0.023 0.07 0.117 0.156 0.289z" inkscape:connector-curvature="0"/>
      <path id="path112" style="fill-rule:evenodd;fill:#b09a4a" d="m15.422 3.277c0.914 0.02 1.652-0.117 2.207-0.418 0.512-0.277 0.648-0.554 0.418-0.832-0.238-0.297-0.684-0.5-1.348-0.609-0.746-0.106-1.554-0.051-2.429 0.16-0.856 0.234-1.079 0.578-0.672 1.027 0.382 0.446 0.992 0.672 1.824 0.672z" inkscape:connector-curvature="0"/>
      <path id="path114" style="fill-rule:evenodd;fill:#e3ce7f" d="m14.559 3.18c0.875 0.148 1.64 0.148 2.3 0 0.579-0.106 0.899-0.278 0.961-0.512 0.067-0.192-0.043-0.383-0.32-0.578-0.254-0.192-0.586-0.297-0.992-0.317-1.172-0.086-2.059 0.02-2.653 0.317-0.343 0.172-0.394 0.394-0.16 0.672 0.235 0.238 0.52 0.375 0.864 0.418z" inkscape:connector-curvature="0"/>
      <path id="path116" style="fill-rule:evenodd;fill:#b09a4a" d="m13.918 1.867c-0.32 0.129-0.461 0.289-0.418 0.481 0.023 0.109 0.363 0.226 1.023 0.351 0.618 0.109 1.504 0.184 2.657 0.227l-2.434-0.45c-0.617-0.086-0.949-0.191-0.988-0.32-0.024-0.062 0.031-0.16 0.16-0.289z" inkscape:connector-curvature="0"/>
      <path id="path118" style="fill-rule:evenodd;fill:#fff0b8" d="m17.82 2.699c0.086-0.062 0.118-0.125 0.098-0.191-0.023 0-0.086-0.082-0.191-0.254-0.196-0.321-0.707-0.492-1.539-0.512-0.36-0.023-0.715-0.023-1.055 0l-0.383 0.063 0.895 0.031c0.171-0.02 0.363 0.012 0.578 0.097 0.316 0.125 0.543 0.204 0.672 0.223 0.253 0.063 0.414 0.141 0.48 0.223 0.02 0.043 0.031 0.14 0.031 0.289l-0.035 0.289c-0.019 0.148 0.129 0.062 0.449-0.258z" inkscape:connector-curvature="0"/>
      <path id="path120" style="fill-rule:evenodd;fill:#b09a4a" d="m5.566 6.699c0.704 0.277 1.301 0.344 1.789 0.191 0.469-0.125 0.653-0.351 0.547-0.671-0.109-0.34-0.398-0.649-0.867-0.926-0.531-0.32-1.148-0.492-1.855-0.512-0.703-0.023-0.969 0.234-0.801 0.766 0.172 0.535 0.566 0.918 1.187 1.152z" inkscape:connector-curvature="0"/>
      <path id="path122" style="fill-rule:evenodd;fill:#e3ce7f" d="m4.957 6.379c0.617 0.363 1.195 0.566 1.727 0.609 0.472 0.043 0.757-0.031 0.863-0.223 0.109-0.171 0.086-0.375-0.063-0.609-0.148-0.258-0.371-0.457-0.672-0.609-0.851-0.403-1.558-0.543-2.113-0.414-0.297 0.062-0.394 0.254-0.285 0.574 0.106 0.301 0.285 0.523 0.543 0.672z" inkscape:connector-curvature="0"/>
      <path id="path124" style="fill-rule:evenodd;fill:#b09a4a" d="m4.828 4.941c-0.277 0.02-0.426 0.125-0.449 0.317-0.02 0.086 0 0.16 0.066 0.226 0.063 0.063 0.266 0.203 0.61 0.414 0.425 0.278 1.074 0.586 1.949 0.93l-1.727-1.055c-0.429-0.277-0.64-0.48-0.64-0.609 0-0.063 0.062-0.137 0.191-0.223z" inkscape:connector-curvature="0"/>
      <path id="path126" style="fill-rule:evenodd;fill:#fff0b8" d="m7.262 6.637-0.129 0.253c-0.02 0.086 0.117 0.067 0.414-0.062 0.109-0.063 0.129-0.223 0.066-0.48-0.043-0.321-0.383-0.629-1.023-0.926-0.278-0.129-0.547-0.215-0.801-0.258l-0.289-0.063 0.641 0.254c0.234 0.067 0.523 0.301 0.863 0.703 0.172 0.11 0.266 0.215 0.289 0.321 0 0.043-0.012 0.129-0.031 0.258z" inkscape:connector-curvature="0"/>
      <path id="path128" style="fill-rule:evenodd;fill:#b09a4a" d="m11.324 8.301c0.832-0.043 1.461-0.246 1.887-0.61 0.406-0.363 0.48-0.691 0.227-0.992-0.258-0.297-0.696-0.48-1.313-0.543-0.684-0.062-1.387 0.055-2.113 0.352-0.727 0.3-0.875 0.683-0.45 1.152 0.43 0.469 1.016 0.684 1.762 0.641z" inkscape:connector-curvature="0"/>
      <path id="path130" style="fill-rule:evenodd;fill:#e3ce7f" d="m10.523 8.238c0.813 0.082 1.497 0.031 2.051-0.16 0.469-0.172 0.723-0.387 0.766-0.641 0.043-0.214-0.074-0.418-0.352-0.609-0.277-0.191-0.597-0.289-0.961-0.289-1.023-0.02-1.8 0.16-2.336 0.547-0.277 0.211-0.277 0.457 0 0.734 0.235 0.235 0.512 0.371 0.832 0.418z" inkscape:connector-curvature="0"/>
      <path id="path132" style="fill-rule:evenodd;fill:#b09a4a" d="m9.758 6.828c-0.067 0.043-0.129 0.098-0.192 0.16-0.128 0.129-0.171 0.258-0.128 0.383 0.042 0.086 0.093 0.141 0.16 0.16 0.105 0.043 0.371 0.098 0.8 0.16 0.575 0.086 1.375 0.106 2.399 0.063l-2.207-0.317c-0.578-0.066-0.887-0.16-0.93-0.289-0.019-0.062 0.012-0.172 0.098-0.32z" inkscape:connector-curvature="0"/>
      <path id="path134" style="fill-rule:evenodd;fill:#fff0b8" d="m12.988 7.789c0 0.086 0.043 0.086 0.129 0 0.063-0.066 0.149-0.16 0.254-0.289 0.067-0.063 0.074-0.137 0.031-0.223-0.062-0.105-0.125-0.203-0.191-0.289-0.234-0.32-0.715-0.48-1.438-0.48-0.339 0-0.66 0.031-0.961 0.097l-0.32 0.094 0.258 0.031c0.191 0 0.363-0.019 0.512-0.062 0.277-0.063 0.672 0.031 1.183 0.289 0.215 0.043 0.364 0.117 0.45 0.223l0.093 0.289c-0.019 0.062-0.019 0.171 0 0.32z" inkscape:connector-curvature="0"/>
      <path id="path136" style="fill-rule:evenodd;fill:#b09a4a" d="m15.934 10.476c0.488-0.148 0.839-0.492 1.054-1.023 0.192-0.555 0.02-0.898-0.511-1.023-0.536-0.129-1.024-0.079-1.473 0.16-0.383 0.211-0.641 0.5-0.77 0.863-0.125 0.34-0.019 0.629 0.321 0.863 0.363 0.258 0.824 0.309 1.379 0.16z" inkscape:connector-curvature="0"/>
      <path id="path138" style="fill-rule:evenodd;fill:#e3ce7f" d="m16.445 10.254c0.192-0.129 0.352-0.344 0.481-0.641 0.129-0.32 0.082-0.555-0.129-0.703-0.406-0.258-0.949-0.246-1.633 0.031-0.234 0.086-0.426 0.254-0.574 0.512-0.152 0.258-0.203 0.48-0.16 0.672 0.082 0.234 0.297 0.383 0.64 0.449 0.383 0.063 0.84-0.043 1.375-0.32z" inkscape:connector-curvature="0"/>
      <path id="path140" style="fill-rule:evenodd;fill:#b09a4a" d="m16.699 8.683c0.086 0.106 0.129 0.204 0.129 0.29-0.019 0.125-0.215 0.296-0.574 0.511l-1.41 0.832 0.578-0.191c0.426-0.172 0.754-0.32 0.992-0.449 0.383-0.215 0.586-0.395 0.606-0.543 0-0.215-0.106-0.364-0.321-0.45z" inkscape:connector-curvature="0"/>
      <path id="path142" style="fill-rule:evenodd;fill:#fff0b8" d="m14.684 10.058c0-0.277 0.086-0.476 0.257-0.605 0.063-0.043 0.192-0.16 0.383-0.352 0.129-0.128 0.246-0.203 0.352-0.226 0.191 0 0.363-0.051 0.512-0.16-0.215-0.039-0.5 0-0.864 0.129-0.512 0.214-0.801 0.48-0.863 0.8-0.086 0.278-0.098 0.457-0.031 0.543 0.211 0.215 0.316 0.278 0.316 0.192l-0.062-0.321z" inkscape:connector-curvature="0"/>
      <path id="path144" style="fill-rule:evenodd;fill:#b09a4a" d="m23.23 4.523c0.598-0.148 1.012-0.488 1.247-1.023 0.234-0.555 0.031-0.895-0.61-1.024-0.617-0.105-1.179-0.043-1.695 0.192-0.469 0.191-0.777 0.469-0.926 0.832-0.129 0.363 0 0.66 0.383 0.894 0.406 0.258 0.937 0.301 1.601 0.129z" inkscape:connector-curvature="0"/>
      <path id="path146" style="fill-rule:evenodd;fill:#e3ce7f" d="m23.836 4.301c0.234-0.129 0.418-0.332 0.543-0.61 0.152-0.316 0.098-0.554-0.156-0.703-0.473-0.254-1.114-0.246-1.922 0.031-0.278 0.086-0.5 0.258-0.672 0.512-0.172 0.238-0.223 0.461-0.16 0.676 0.086 0.234 0.332 0.371 0.738 0.414 0.465 0.062 1.012-0.043 1.629-0.32z" inkscape:connector-curvature="0"/>
      <path id="path148" style="fill-rule:evenodd;fill:#b09a4a" d="m24.156 2.734c0.106 0.125 0.149 0.235 0.129 0.317-0.023 0.129-0.246 0.3-0.672 0.511l-1.664 0.801 0.703-0.191c0.512-0.149 0.895-0.285 1.153-0.414 0.34-0.172 0.543-0.289 0.605-0.352 0.067-0.043 0.098-0.109 0.098-0.191 0.023-0.239-0.098-0.399-0.352-0.481z" inkscape:connector-curvature="0"/>
      <path id="path150" style="fill-rule:evenodd;fill:#fff0b8" d="m22.523 3.148c0.153-0.129 0.289-0.191 0.418-0.191 0.215-0.02 0.418-0.074 0.61-0.16-0.258-0.043-0.598 0-1.024 0.129-0.597 0.168-0.941 0.437-1.027 0.797-0.062 0.171-0.094 0.281-0.094 0.32-0.019 0.086 0 0.16 0.063 0.226 0.258 0.192 0.375 0.243 0.351 0.157l-0.062-0.286c0-0.171 0.012-0.277 0.031-0.32 0.02-0.105 0.117-0.203 0.289-0.289 0.082-0.043 0.234-0.168 0.445-0.383z" inkscape:connector-curvature="0"/>
      <path id="path152" style="fill-rule:evenodd;fill:#b09a4a" d="m4.895 1.898c0.832 0.047 1.503-0.082 2.015-0.383 0.445-0.253 0.563-0.531 0.352-0.832-0.235-0.296-0.653-0.5-1.25-0.605-0.66-0.129-1.387-0.098-2.176 0.094-0.789 0.172-0.992 0.492-0.609 0.961 0.343 0.468 0.898 0.726 1.668 0.765z" inkscape:connector-curvature="0"/>
      <path id="path154" style="fill-rule:evenodd;fill:#e3ce7f" d="m4.094 1.773c0.808 0.172 1.511 0.192 2.109 0.063 0.492-0.129 0.77-0.297 0.836-0.512 0.063-0.172-0.023-0.363-0.258-0.574-0.254-0.195-0.566-0.313-0.926-0.356-1.066-0.125-1.867-0.039-2.402 0.258-0.32 0.149-0.375 0.363-0.16 0.641 0.211 0.254 0.48 0.414 0.801 0.48z" inkscape:connector-curvature="0"/>
      <path id="path156" style="fill-rule:evenodd;fill:#b09a4a" d="m3.516 0.43c-0.297 0.105-0.426 0.253-0.383 0.449 0.023 0.082 0.062 0.148 0.129 0.191 0.105 0.043 0.371 0.106 0.8 0.192 0.551 0.148 1.352 0.253 2.399 0.316l-2.176-0.512c-0.578-0.125-0.875-0.242-0.894-0.351-0.024-0.063 0.019-0.16 0.125-0.285z" inkscape:connector-curvature="0"/>
      <path id="path158" style="fill-rule:evenodd;fill:#fff0b8" d="m5.598 0.332c-0.344-0.02-0.664-0.02-0.961 0l-0.352 0.031 0.801 0.067c0.148-0.024 0.328 0.019 0.543 0.125 0.277 0.128 0.48 0.214 0.609 0.257 0.211 0.063 0.352 0.137 0.414 0.223 0.024 0.129 0.032 0.223 0.032 0.289l-0.063 0.289c0 0.082 0.149 0.008 0.449-0.226 0.063-0.063 0.086-0.129 0.063-0.192 0-0.019-0.055-0.117-0.16-0.289-0.149-0.297-0.61-0.488-1.375-0.574z" inkscape:connector-curvature="0"/>
    </g>
  </g>
<metadata><rdf:RDF><cc:Work><dc:format>image/svg+xml</dc:format><dc:type rdf:resource="http://purl.org/dc/dcmitype/StillImage"/><cc:license rdf:resource="http://creativecommons.org/licenses/publicdomain/"/><dc:publisher><cc:Agent rdf:about="http://openclipart.org/"><dc:title>Openclipart</dc:title></cc:Agent></dc:publisher></cc:Work><cc:License rdf:about="http://creativecommons.org/licenses/publicdomain/"><cc:permits rdf:resource="http://creativecommons.org/ns#Reproduction"/><cc:permits rdf:resource="http://creativecommons.org/ns#Distribution"/><cc:permits rdf:resource="http://creativecommons.org/ns#DerivativeWorks"/></cc:License></rdf:RDF></metadata></svg>
