<svg version="1.1" viewBox="0.0 0.0 480.0 192.0" fill="none" stroke="none" stroke-linecap="square" stroke-miterlimit="10" xmlns:xlink="http://www.w3.org/1999/xlink" xmlns="http://www.w3.org/2000/svg"><clipPath id="p.0"><path d="m0 0l480.0 0l0 192.0l-480.0 0l0 -192.0z" clip-rule="nonzero"/></clipPath><g clip-path="url(#p.0)"><path fill="#000000" fill-opacity="0.0" d="m0 0l480.0 0l0 192.0l-480.0 0z" fill-rule="evenodd"/><path fill="#000000" fill-opacity="0.0" d="m20.152441 5.1963253l439.68506 0l0 181.60631l-439.68506 0z" fill-rule="evenodd"/><path fill="#4a86e8" d="m40.36214 106.204445q0 -8.984375 2.6875 -18.921875q3.515625 -13.3125 10.71875 -23.109375q7.21875 -9.796875 18.187504 -15.484375q10.984375 -5.703125 24.984375 -5.703125q18.765625 0 30.328125 11.671875q11.562492 11.65625 11.562492 30.90625q0 16.015625 -7.53125 30.984375q-7.5156174 14.968742 -20.421867 23.046867q-12.90625 8.078125 -29.1875 8.078125q-14.140625 0 -23.734379 -6.421875q-9.59375 -6.421875 -13.59375 -15.906242q-4.0 -9.484375 -4.0 -19.140625zm20.5625 -0.421875q0 10.421875 6.343754 17.46875q6.34375 7.0312424 16.703125 7.0312424q8.421875 0 16.171875 -5.5468674q7.765625 -5.5625 12.84375 -16.84375q5.078125 -11.28125 5.078125 -21.984375q0 -11.9375 -6.421875 -18.734375q-6.421875 -6.796875 -16.359375 -6.796875q-15.25 0 -24.8125 14.21875q-9.546879 14.21875 -9.546879 31.1875zm149.05455 17.734375l-40.09375 0l-12.140625 22.359367l-21.40625 0l57.21875 -101.17187l23.109375 0l16.421875 101.17187l-19.734375 0l-3.375 -22.359367zm-2.5625 -16.84375l-5.859375 -40.703125l-24.421875 40.703125l30.28125 0zm96.54703 39.203117l-19.734375 0l-3.65625 -84.53124l-16.078125 84.53124l-18.765625 0l21.109375 -101.17187l29.671875 0l3.109375 70.875l34.5 -70.875l30.015625 0l-21.1875 101.17187l-18.96875 0l19.9375 -83.90624l-39.953125 83.90624zm62.727417 -32.781242l19.8125 -1.03125q0.40625 9.453125 3.234375 12.765625q4.5625 5.3749924 16.84375 5.3749924q10.21875 0 14.765625 -3.6562424q4.5625 -3.65625 4.5625 -8.828125q0 -4.484375 -3.734375 -7.59375q-2.625 -2.265625 -14.390625 -7.375q-11.765625 -5.109375 -17.1875 -8.515625q-5.40625 -3.421875 -8.515625 -8.875q-3.109375 -5.453125 -3.109375 -12.765625q0 -12.765625 9.25 -21.1875q9.25 -8.421875 26.78125 -8.421875q17.796875 0 27.5625 8.359375q9.765625 8.34375 10.734375 22.21875l-19.953125 0.890625q-0.75 -7.25 -5.234375 -11.109375q-4.484375 -3.859375 -13.25 -3.859375q-8.625 0 -12.328125 3.03125q-3.6875 3.03125 -3.6875 7.65625q0 4.34375 3.390625 7.171875q3.375 2.90625 14.96875 7.9375q17.453125 7.53125 22.21875 12.21875q7.109375 6.90625 7.109375 17.734375q0 13.390617 -10.59375 22.874992q-10.59375 9.484375 -29.5 9.484375q-13.046875 0 -22.609375 -4.375q-9.546875 -4.375 -13.484375 -12.171875q-3.9375 -7.8124924 -3.65625 -17.953117z" fill-rule="nonzero"/></g></svg>